<svg width="1170" height="154" viewBox="0 0 1170 154" fill="none" xmlns="http://www.w3.org/2000/svg">
<path d="M114.106 94.3999C104.906 94.3999 96.9059 94.3999 90.1059 94.3999C83.4392 94.3999 77.8392 94.3332 73.3059 94.1999C68.9059 94.1999 65.3059 94.1332 62.5059 93.9999V11.1999C62.5059 7.33324 63.3059 4.86657 64.9059 3.7999C66.6392 2.73324 68.9725 2.13324 71.9059 1.99991C75.1059 1.99991 78.1059 1.99991 80.9059 1.99991C83.7059 1.86657 86.3059 1.7999 88.7059 1.7999C91.1059 1.66657 93.5059 1.5999 95.9059 1.5999C98.3059 1.5999 100.839 1.5999 103.506 1.5999C106.573 1.5999 109.706 1.66657 112.906 1.7999C116.106 1.7999 119.173 1.86657 122.106 1.99991C125.039 1.99991 127.373 2.06657 129.106 2.1999C136.573 2.73324 141.973 4.86657 145.306 8.5999C148.773 12.1999 150.506 17.4666 150.506 24.3999C150.506 29.5999 149.639 33.7999 147.906 36.9999C146.306 40.0666 144.239 42.2666 141.706 43.5999C139.173 44.9332 136.706 45.7332 134.306 45.9999C136.706 45.9999 139.039 46.2666 141.306 46.7999C143.706 47.1999 145.839 48.1999 147.706 49.7999C149.706 51.2666 151.306 53.5332 152.506 56.5999C153.706 59.5332 154.306 63.5332 154.306 68.5999C154.306 74.7332 153.173 79.5999 150.906 83.1999C148.639 86.6666 145.639 89.1999 141.906 90.7999C138.173 92.3999 133.906 93.3999 129.106 93.7999C124.306 94.1999 119.306 94.3999 114.106 94.3999ZM110.106 86.3999C113.706 86.3999 117.173 86.2666 120.506 85.9999C123.973 85.7332 127.039 85.0666 129.706 83.9999C132.506 82.9332 134.706 81.1332 136.306 78.5999C137.906 76.0666 138.706 72.5332 138.706 67.9999C138.706 61.4666 137.239 56.9999 134.306 54.5999C131.506 52.0666 125.906 50.7999 117.506 50.7999H86.3059C84.5725 50.7999 83.4392 50.1332 82.9059 48.7999C82.3725 47.4666 82.1059 45.4666 82.1059 42.7999H116.906C120.106 42.7999 123.039 42.3999 125.706 41.5999C128.506 40.7999 130.773 39.1332 132.506 36.5999C134.239 33.9332 135.106 30.0666 135.106 24.9999C135.106 20.3332 134.039 16.7332 131.906 14.1999C129.773 11.5332 126.306 9.9999 121.506 9.5999C118.839 9.33324 115.906 9.1999 112.706 9.1999C109.506 9.06657 106.373 8.9999 103.306 8.9999C99.3059 8.9999 95.5059 8.9999 91.9059 8.9999C88.4392 8.9999 85.5059 9.06657 83.1059 9.1999C81.6392 9.1999 80.3725 9.66657 79.3059 10.5999C78.3725 11.3999 77.9059 12.7999 77.9059 14.7999V85.9999C78.8392 85.9999 80.0392 86.0666 81.5059 86.1999C83.1059 86.1999 85.0392 86.2666 87.3059 86.3999C89.7059 86.3999 92.7059 86.3999 96.3059 86.3999C100.039 86.3999 104.639 86.3999 110.106 86.3999Z" fill="black"/>
<path d="M242.061 93.9999C242.061 79.7332 242.061 65.4666 242.061 51.1999C242.061 36.9332 242.061 22.6666 242.061 8.3999C242.061 6.93324 242.127 5.7999 242.261 4.9999C242.527 4.06657 242.994 3.33324 243.661 2.7999C244.461 2.26657 245.727 1.99991 247.461 1.99991H257.461V93.9999H242.061Z" fill="black"/>
<path d="M425.493 94.9999C423.493 94.9999 421.627 94.7332 419.893 94.1999C418.16 93.6666 416.427 92.7332 414.693 91.3999C413.893 90.5999 412.493 89.1332 410.493 86.9999C408.627 84.8666 406.427 82.4666 403.893 79.7999C401.493 76.9999 399.027 74.1999 396.493 71.3999C393.96 68.4666 391.693 65.8666 389.693 63.5999C387.693 61.3332 386.227 59.6666 385.293 58.5999C383.827 56.9999 382.56 55.8666 381.493 55.1999C380.427 54.5332 378.76 53.9332 376.493 53.3999L365.893 52.9999V93.9999H350.693V7.59991C350.693 6.26657 350.76 5.1999 350.893 4.3999C351.16 3.5999 351.627 2.9999 352.293 2.5999C353.093 2.19991 354.293 1.99991 355.893 1.99991C357.627 1.99991 359.293 1.99991 360.893 1.99991C362.627 1.99991 364.293 1.99991 365.893 1.99991C365.893 3.86657 365.893 6.5999 365.893 10.1999C365.893 13.6666 365.893 17.3999 365.893 21.3999C365.893 25.2666 365.893 28.9999 365.893 32.5999C365.893 36.0666 365.893 38.7332 365.893 40.5999L376.493 39.9999C378.36 39.8666 379.76 39.4666 380.693 38.7999C381.627 38.1332 382.693 37.1332 383.893 35.7999C386.827 32.5999 389.893 29.2666 393.093 25.7999C396.427 22.3332 399.827 18.7999 403.293 15.1999C406.76 11.5999 410.027 8.13324 413.093 4.79991C414.693 3.5999 416.36 2.73324 418.093 2.1999C419.827 1.66657 421.827 1.3999 424.093 1.3999C425.96 1.3999 427.493 1.53323 428.693 1.7999C429.893 2.06657 431.093 2.3999 432.293 2.7999C432.027 2.93324 431.093 3.86657 429.493 5.5999C428.027 7.1999 426.293 9.06657 424.293 11.1999C422.293 13.1999 420.56 14.9999 419.093 16.5999C415.627 19.7999 411.96 23.1332 408.093 26.5999C404.227 30.0666 400.493 33.5332 396.893 36.9999C393.427 40.3332 390.16 43.4666 387.093 46.3999L387.693 43.1999C389.56 44.6666 392.16 47.1332 395.493 50.5999C398.96 53.9332 402.893 57.9332 407.293 62.5999C411.693 67.1332 416.293 71.9332 421.093 76.9999C425.893 82.0666 430.56 86.7999 435.093 91.1999C434.827 91.5999 434.227 92.1332 433.293 92.7999C432.36 93.3332 431.293 93.7999 430.093 94.1999C428.893 94.7332 427.36 94.9999 425.493 94.9999Z" fill="black"/>
<path d="M555.442 95.3999C547.442 95.3999 540.375 94.7999 534.242 93.5999C528.108 92.3999 522.842 90.1999 518.442 86.9999C514.175 83.6666 510.908 78.8666 508.642 72.5999C506.375 66.3332 505.242 58.0666 505.242 47.7999C505.242 37.3999 506.442 29.0666 508.842 22.7999C511.375 16.3999 514.908 11.5999 519.442 8.3999C523.975 5.1999 529.375 3.06657 535.642 1.99991C542.042 0.933237 549.175 0.399902 557.042 0.399902C564.908 0.399902 571.908 0.999903 578.042 2.1999C584.175 3.26657 589.375 5.46657 593.642 8.7999C598.042 11.9999 601.375 16.7332 603.642 22.9999C605.908 29.2666 607.042 37.5332 607.042 47.7999C607.042 58.3332 605.775 66.7332 603.242 72.9999C600.842 79.2666 597.375 84.0666 592.842 87.3999C588.442 90.5999 583.042 92.7332 576.642 93.7999C570.375 94.8666 563.308 95.3999 555.442 95.3999ZM556.042 86.7999C561.642 86.7999 566.642 86.3332 571.042 85.3999C575.442 84.3332 579.108 82.4666 582.042 79.7999C585.108 77.1332 587.375 73.2666 588.842 68.1999C590.442 62.9999 591.242 56.1999 591.242 47.7999C591.242 39.5332 590.442 32.8666 588.842 27.7999C587.375 22.5999 585.108 18.6666 582.042 15.9999C579.108 13.1999 575.442 11.3332 571.042 10.3999C566.642 9.46657 561.642 8.9999 556.042 8.9999C550.308 8.9999 545.242 9.46657 540.842 10.3999C536.575 11.3332 532.975 13.1999 530.042 15.9999C527.108 18.6666 524.842 22.5999 523.242 27.7999C521.775 32.8666 521.042 39.5332 521.042 47.7999C521.042 56.1999 521.775 62.9999 523.242 68.1999C524.842 73.2666 527.108 77.1332 530.042 79.7999C532.975 82.4666 536.575 84.3332 540.842 85.3999C545.242 86.3332 550.308 86.7999 556.042 86.7999Z" fill="black"/>
<path d="M748.368 56.1999C748.368 56.1999 746.502 56.1999 742.768 56.1999C739.035 56.1999 734.035 56.1999 727.768 56.1999C721.502 56.1999 714.568 56.2666 706.968 56.3999V93.9999H691.568V12.3999C691.568 8.53324 692.368 5.86657 693.968 4.3999C695.702 2.93324 698.502 2.13324 702.368 1.99991C704.368 1.86657 706.968 1.7999 710.168 1.7999C713.502 1.7999 717.168 1.7999 721.168 1.7999C725.168 1.66657 729.235 1.5999 733.368 1.5999C737.635 1.5999 741.702 1.5999 745.568 1.5999C749.568 1.5999 753.102 1.66657 756.168 1.7999C759.235 1.93324 761.635 2.06657 763.368 2.1999C770.302 2.86657 775.368 5.1999 778.568 9.1999C781.768 13.0666 783.368 18.8666 783.368 26.5999C783.368 32.7332 782.502 37.5999 780.768 41.1999C779.168 44.7999 776.702 47.4666 773.368 49.1999C772.968 49.5999 772.302 49.9332 771.368 50.1999C770.568 50.3332 769.702 50.3999 768.768 50.3999V50.7999C769.302 50.7999 769.902 50.7999 770.568 50.7999C771.235 50.7999 771.768 50.7999 772.168 50.7999C777.235 51.7332 780.302 53.7999 781.368 56.9999C782.435 60.0666 782.968 63.1999 782.968 66.3999V89.1999C782.968 90.5332 783.102 91.6666 783.368 92.5999C783.635 93.3999 783.835 93.8666 783.968 93.9999H773.168C771.302 93.9999 769.835 93.6666 768.768 92.9999C767.702 92.3332 767.168 90.7332 767.168 88.1999V66.9999C767.168 62.8666 766.235 60.0666 764.368 58.5999C762.635 56.9999 759.502 56.1999 754.968 56.1999H748.368ZM706.968 47.7999C708.835 47.7999 711.768 47.8666 715.768 47.9999C719.768 47.9999 724.102 47.9999 728.768 47.9999C733.568 47.9999 737.968 47.9999 741.968 47.9999C745.968 47.9999 748.902 47.9999 750.768 47.9999C755.168 47.9999 759.035 46.6666 762.368 43.9999C765.835 41.1999 767.568 36.0666 767.568 28.5999C767.568 23.5332 766.568 19.5332 764.568 16.5999C762.702 13.5332 759.635 11.7332 755.368 11.1999C752.568 10.7999 749.102 10.5999 744.968 10.5999C740.835 10.4666 736.568 10.4666 732.168 10.5999C727.768 10.5999 723.702 10.6666 719.968 10.7999C716.235 10.7999 713.435 10.7999 711.568 10.7999C711.168 10.7999 710.302 11.0666 708.968 11.5999C707.635 11.9999 706.968 13.3332 706.968 15.5999V47.7999Z" fill="black"/>
<path d="M871.904 93.9999V8.3999C871.904 5.9999 872.238 4.33324 872.904 3.39991C873.571 2.46657 875.038 1.99991 877.304 1.99991H956.704V10.7999H887.304V41.3999H950.904V50.1999H887.304V85.1999H956.704V93.9999H871.904Z" fill="black"/>
<path d="M1028.69 1.99991H1119.69V10.9999H1081.89V87.3999C1081.89 89.9332 1081.56 91.6666 1080.89 92.5999C1080.36 93.5332 1078.89 93.9999 1076.49 93.9999H1066.69V10.9999H1028.69V1.99991Z" fill="black"/>
<line x1="0.5" y1="149.5" x2="1169.5" y2="149.5" stroke="black" stroke-width="9"/>
</svg>
